<svg xmlns="http://www.w3.org/2000/svg" width="36" height="36" viewBox="0 0 36 36">
  <g id="Group_65914" data-name="Group 65914" transform="translate(-0.021 -0.011)">
    <g id="Group_65913" data-name="Group 65913">
      <g id="Group_65895" data-name="Group 65895">
        <g id="Ellipse_116" data-name="Ellipse 116" transform="translate(0.021 0.011)" fill="none" stroke="#e6e6e6" stroke-width="1">
          <circle cx="18" cy="18" r="18" stroke="none"/>
          <circle cx="18" cy="18" r="17.5" fill="none"/>
        </g>
      </g>
      <path id="Path_57384" data-name="Path 57384" d="M267.154,691.692c-1.86,0-2.646.888-3.942.888-1.328,0-2.341-.881-3.953-.881a5.393,5.393,0,0,0-4.328,2.6c-1.5,2.314-1.246,6.673,1.184,10.385.869,1.329,2.03,2.82,3.553,2.836h.028c1.323,0,1.716-.866,3.537-.876h.028c1.793,0,2.153.872,3.471.872h.028c1.522-.017,2.745-1.668,3.615-2.992a14.383,14.383,0,0,0,1.338-2.507,4.55,4.55,0,0,1-.6-8.228,5.247,5.247,0,0,0-3.958-2.1Z" transform="translate(-244.551 -678.883)"/>
    </g>
    <path id="Path_57385" data-name="Path 57385" d="M272.646,683.5a4.874,4.874,0,0,0-3.156,1.7,4.2,4.2,0,0,0-1.029,3.271h.089a4.151,4.151,0,0,0,3.091-1.62A4.5,4.5,0,0,0,272.646,683.5Z" transform="translate(-250.453 -675.528)"/>
  </g>
</svg>
